<svg width="80" height="80" viewBox="0 0 80 80" fill="none" xmlns="http://www.w3.org/2000/svg">
<circle cx="40" cy="40" r="40" fill="#0A0A0A"/>
<path d="M46.47 44.83L46.86 47.99C46.96 48.82 46.07 49.4 45.36 48.97L41.9 46.91C41.66 46.77 41.6 46.47 41.73 46.23C42.23 45.31 42.5 44.27 42.5 43.23C42.5 39.57 39.36 36.59 35.5 36.59C34.71 36.59 33.94 36.71 33.22 36.95C32.85 37.07 32.49 36.73 32.58 36.35C33.49 32.71 36.99 30 41.17 30C46.05 30 50 33.69 50 38.24C50 40.94 48.61 43.33 46.47 44.83Z" fill="white"/>
<path d="M41 43.2301C41 44.4201 40.56 45.5201 39.82 46.3901C38.83 47.5901 37.26 48.3601 35.5 48.3601L32.89 49.9101C32.45 50.1801 31.89 49.8101 31.95 49.3001L32.2 47.3301C30.86 46.4001 30 44.9101 30 43.2301C30 41.4701 30.94 39.9201 32.38 39.0001C33.27 38.4201 34.34 38.0901 35.5 38.0901C38.54 38.0901 41 40.3901 41 43.2301Z" fill="white"/>
</svg>
